<svg xmlns="http://www.w3.org/2000/svg" xmlns:xlink="http://www.w3.org/1999/xlink" width="1151" height="572" contentScriptType="application/ecmascript" contentStyleType="text/css" style="width:1151px;height:572px" preserveAspectRatio="none" version="1.1" viewBox="0 0 1151 572" zoomAndPan="magnify"><g><rect style="stroke:#1478c7;stroke-width:1" width="10" height="124.242" x="803.5" y="351.594" fill="#FFF"/><line style="stroke:#1478c7;stroke-width:1;stroke-dasharray:5,5" x1="26" x2="26" y1="82.488" y2="484.836"/><line style="stroke:#1478c7;stroke-width:1;stroke-dasharray:5,5" x1="186" x2="186" y1="82.488" y2="484.836"/><line style="stroke:#1478c7;stroke-width:1;stroke-dasharray:5,5" x1="382" x2="382" y1="82.488" y2="484.836"/><line style="stroke:#1478c7;stroke-width:1;stroke-dasharray:5,5" x1="527" x2="527" y1="82.488" y2="484.836"/><line style="stroke:#1478c7;stroke-width:1;stroke-dasharray:5,5" x1="658" x2="658" y1="82.488" y2="484.836"/><line style="stroke:#1478c7;stroke-width:1;stroke-dasharray:5,5" x1="808" x2="808" y1="82.488" y2="484.836"/><line style="stroke:#1478c7;stroke-width:1;stroke-dasharray:5,5" x1="965" x2="965" y1="82.488" y2="484.836"/><line style="stroke:#1478c7;stroke-width:1;stroke-dasharray:5,5" x1="1086" x2="1086" y1="82.488" y2="484.836"/><text x="8" y="79.535" fill="#204E74" font-family="sans-serif" font-size="14" lengthAdjust="spacingAndGlyphs" textLength="31">User</text><ellipse cx="26.5" cy="13" fill="#204E74" rx="8" ry="8" style="stroke:#204e74;stroke-width:2"/><path fill="#204E74" d="M26.5,21 L26.5,48 M13.5,29 L39.5,29 M26.5,48 L13.5,63 M26.5,48 L39.5,63" style="stroke:#204e74;stroke-width:2"/><text x="8" y="497.371" fill="#204E74" font-family="sans-serif" font-size="14" lengthAdjust="spacingAndGlyphs" textLength="31">User</text><ellipse cx="26.5" cy="510.324" fill="#204E74" rx="8" ry="8" style="stroke:#204e74;stroke-width:2"/><path fill="#204E74" d="M26.5,518.3242 L26.5,545.3242 M13.5,526.3242 L39.5,526.3242 M26.5,545.3242 L13.5,560.3242 M26.5,545.3242 L39.5,560.3242" style="stroke:#204e74;stroke-width:2"/><rect style="stroke:#fff;stroke-width:1.5" width="245" height="46.977" x="64" y="34.512" fill="#12A8F1"/><text x="130" y="55.047" fill="#FFF" font-family="sans-serif" font-size="14" font-weight="bold" lengthAdjust="spacingAndGlyphs" textLength="113">Relay API client</text><text x="71" y="71.535" fill="#FFF" font-family="sans-serif" font-size="14" font-style="italic" lengthAdjust="spacingAndGlyphs" textLength="231">Relay Touch, Admin UI, or custom</text><rect style="stroke:#fff;stroke-width:1.5" width="245" height="46.977" x="64" y="483.836" fill="#12A8F1"/><text x="130" y="504.371" fill="#FFF" font-family="sans-serif" font-size="14" font-weight="bold" lengthAdjust="spacingAndGlyphs" textLength="113">Relay API client</text><text x="71" y="520.859" fill="#FFF" font-family="sans-serif" font-size="14" font-style="italic" lengthAdjust="spacingAndGlyphs" textLength="231">Relay Touch, Admin UI, or custom</text><rect style="stroke:#fff;stroke-width:1.5" width="127" height="46.977" x="319" y="34.512" fill="#12A8F1"/><text x="338.5" y="55.047" fill="#FFF" font-family="sans-serif" font-size="14" font-weight="bold" lengthAdjust="spacingAndGlyphs" textLength="88">Relay server</text><text x="326" y="71.535" fill="#FFF" font-family="sans-serif" font-size="14" font-style="italic" lengthAdjust="spacingAndGlyphs" textLength="113">Cloud API server</text><rect style="stroke:#fff;stroke-width:1.5" width="127" height="46.977" x="319" y="483.836" fill="#12A8F1"/><text x="338.5" y="504.371" fill="#FFF" font-family="sans-serif" font-size="14" font-weight="bold" lengthAdjust="spacingAndGlyphs" textLength="88">Relay server</text><text x="326" y="520.859" fill="#FFF" font-family="sans-serif" font-size="14" font-style="italic" lengthAdjust="spacingAndGlyphs" textLength="113">Cloud API server</text><rect style="stroke:#fff;stroke-width:1.5" width="142" height="46.977" x="456" y="34.512" fill="#12A8F1"/><text x="470.5" y="55.047" fill="#FFF" font-family="sans-serif" font-size="14" font-weight="bold" lengthAdjust="spacingAndGlyphs" textLength="113">Listener Service</text><text x="463" y="71.535" fill="#FFF" font-family="sans-serif" font-size="14" font-style="italic" lengthAdjust="spacingAndGlyphs" textLength="128">On-prem program</text><rect style="stroke:#fff;stroke-width:1.5" width="142" height="46.977" x="456" y="483.836" fill="#12A8F1"/><text x="470.5" y="504.371" fill="#FFF" font-family="sans-serif" font-size="14" font-weight="bold" lengthAdjust="spacingAndGlyphs" textLength="113">Listener Service</text><text x="463" y="520.859" fill="#FFF" font-family="sans-serif" font-size="14" font-style="italic" lengthAdjust="spacingAndGlyphs" textLength="128">On-prem program</text><rect style="stroke:#fff;stroke-width:1.5" width="101" height="46.977" x="608" y="34.512" fill="#3AC97A"/><text x="615" y="55.047" fill="#FFF" font-family="sans-serif" font-size="14" font-weight="bold" lengthAdjust="spacingAndGlyphs" textLength="87">Mesh server</text><text x="619" y="71.535" fill="#FFF" font-family="sans-serif" font-size="14" font-style="italic" lengthAdjust="spacingAndGlyphs" textLength="79">Your server</text><rect style="stroke:#fff;stroke-width:1.5" width="101" height="46.977" x="608" y="483.836" fill="#3AC97A"/><text x="615" y="504.371" fill="#FFF" font-family="sans-serif" font-size="14" font-weight="bold" lengthAdjust="spacingAndGlyphs" textLength="87">Mesh server</text><text x="619" y="520.859" fill="#FFF" font-family="sans-serif" font-size="14" font-style="italic" lengthAdjust="spacingAndGlyphs" textLength="79">Your server</text><rect style="stroke:#fff;stroke-width:1.5" width="179" height="46.977" x="719" y="34.512" fill="#1B576A"/><text x="726" y="55.047" fill="#FFF" font-family="sans-serif" font-size="14" font-weight="bold" lengthAdjust="spacingAndGlyphs" textLength="165">Tandberg 1000 Classic</text><text x="756" y="71.535" fill="#FFF" font-family="sans-serif" font-size="14" font-style="italic" lengthAdjust="spacingAndGlyphs" textLength="105">Video endpoint</text><rect style="stroke:#fff;stroke-width:1.5" width="179" height="46.977" x="719" y="483.836" fill="#1B576A"/><text x="726" y="504.371" fill="#FFF" font-family="sans-serif" font-size="14" font-weight="bold" lengthAdjust="spacingAndGlyphs" textLength="165">Tandberg 1000 Classic</text><text x="756" y="520.859" fill="#FFF" font-family="sans-serif" font-size="14" font-style="italic" lengthAdjust="spacingAndGlyphs" textLength="105">Video endpoint</text><rect style="stroke:#fff;stroke-width:1.5" width="115" height="46.977" x="908" y="34.512" fill="#1B576A"/><text x="951.5" y="55.047" fill="#FFF" font-family="sans-serif" font-size="14" font-weight="bold" lengthAdjust="spacingAndGlyphs" textLength="28">VCS</text><text x="915" y="71.535" fill="#FFF" font-family="sans-serif" font-size="14" font-style="italic" lengthAdjust="spacingAndGlyphs" textLength="101">H.323 gateway</text><rect style="stroke:#fff;stroke-width:1.5" width="115" height="46.977" x="908" y="483.836" fill="#1B576A"/><text x="951.5" y="504.371" fill="#FFF" font-family="sans-serif" font-size="14" font-weight="bold" lengthAdjust="spacingAndGlyphs" textLength="28">VCS</text><text x="915" y="520.859" fill="#FFF" font-family="sans-serif" font-size="14" font-style="italic" lengthAdjust="spacingAndGlyphs" textLength="101">H.323 gateway</text><rect style="stroke:#fff;stroke-width:1.5" width="107" height="46.977" x="1033" y="34.512" fill="#12A8F1"/><text x="1049" y="55.047" fill="#FFF" font-family="sans-serif" font-size="14" font-weight="bold" lengthAdjust="spacingAndGlyphs" textLength="75">Blue Jeans</text><text x="1040" y="71.535" fill="#FFF" font-family="sans-serif" font-size="14" font-style="italic" lengthAdjust="spacingAndGlyphs" textLength="93">SIP connector</text><rect style="stroke:#fff;stroke-width:1.5" width="107" height="46.977" x="1033" y="483.836" fill="#12A8F1"/><text x="1049" y="504.371" fill="#FFF" font-family="sans-serif" font-size="14" font-weight="bold" lengthAdjust="spacingAndGlyphs" textLength="75">Blue Jeans</text><text x="1040" y="520.859" fill="#FFF" font-family="sans-serif" font-size="14" font-style="italic" lengthAdjust="spacingAndGlyphs" textLength="93">SIP connector</text><rect style="stroke:#1478c7;stroke-width:1" width="10" height="124.242" x="803.5" y="351.594" fill="#FFF"/><polygon fill="#204E74" points="174.5 124.488 184.5 128.488 174.5 132.488 178.5 128.488" style="stroke:#204e74;stroke-width:1"/><line style="stroke:#204e74;stroke-width:1" x1="26.5" x2="180.5" y1="128.488" y2="128.488"/><text x="33.5" y="109.057" fill="#204E74" font-family="sans-serif" font-size="13" lengthAdjust="spacingAndGlyphs" textLength="110">Join meeting with</text><text x="33.5" y="124.367" fill="#204E74" font-family="sans-serif" font-size="13" lengthAdjust="spacingAndGlyphs" textLength="136">meeting ID, passcode</text><polygon fill="#204E74" points="370.5 169.109 380.5 173.109 370.5 177.109 374.5 173.109" style="stroke:#204e74;stroke-width:1"/><line style="stroke:#204e74;stroke-width:1" x1="186.5" x2="376.5" y1="173.109" y2="173.109"/><text x="193.5" y="153.678" fill="#204E74" font-family="sans-serif" font-size="13" lengthAdjust="spacingAndGlyphs" textLength="91">endpoints.join</text><text x="193.5" y="168.988" fill="#204E74" font-family="sans-serif" font-size="13" font-style="italic" lengthAdjust="spacingAndGlyphs" textLength="84">HTTP request</text><polygon fill="#204E74" points="515 213.731 525 217.731 515 221.731 519 217.731" style="stroke:#204e74;stroke-width:1"/><line style="stroke:#204e74;stroke-width:1" x1="382.5" x2="521" y1="217.731" y2="217.731"/><text x="389.5" y="198.299" fill="#204E74" font-family="sans-serif" font-size="13" lengthAdjust="spacingAndGlyphs" textLength="60">Invitation</text><text x="389.5" y="213.609" fill="#204E74" font-family="sans-serif" font-size="13" font-style="italic" lengthAdjust="spacingAndGlyphs" textLength="103">AMQP command</text><polygon fill="#204E74" points="646.5 258.352 656.5 262.352 646.5 266.352 650.5 262.352" style="stroke:#204e74;stroke-width:1"/><line style="stroke:#204e74;stroke-width:1" x1="527" x2="652.5" y1="262.352" y2="262.352"/><text x="534" y="242.92" fill="#204E74" font-family="sans-serif" font-size="13" lengthAdjust="spacingAndGlyphs" textLength="24">join</text><text x="534" y="258.231" fill="#204E74" font-family="sans-serif" font-size="13" font-style="italic" lengthAdjust="spacingAndGlyphs" textLength="84">HTTP request</text><polygon fill="#204E74" points="796.5 302.973 806.5 306.973 796.5 310.973 800.5 306.973" style="stroke:#204e74;stroke-width:1"/><line style="stroke:#204e74;stroke-width:1" x1="658.5" x2="802.5" y1="306.973" y2="306.973"/><text x="665.5" y="287.541" fill="#204E74" font-family="sans-serif" font-size="13" lengthAdjust="spacingAndGlyphs" textLength="62">place_call</text><text x="665.5" y="302.852" fill="#204E74" font-family="sans-serif" font-size="13" font-style="italic" lengthAdjust="spacingAndGlyphs" textLength="84">HTTP request</text><polygon fill="#204E74" points="953.5 347.594 963.5 351.594 953.5 355.594 957.5 351.594" style="stroke:#204e74;stroke-width:1"/><line style="stroke:#204e74;stroke-width:1" x1="813.5" x2="959.5" y1="351.594" y2="351.594"/><text x="820.5" y="332.162" fill="#204E74" font-family="sans-serif" font-size="13" lengthAdjust="spacingAndGlyphs" textLength="35">setup</text><text x="820.5" y="347.473" fill="#204E74" font-family="sans-serif" font-size="13" font-style="italic" lengthAdjust="spacingAndGlyphs" textLength="64">H.323 call</text><polygon fill="#204E74" points="1074.5 392.215 1084.5 396.215 1074.5 400.215 1078.5 396.215" style="stroke:#204e74;stroke-width:1"/><line style="stroke:#204e74;stroke-width:1" x1="965.5" x2="1080.5" y1="396.215" y2="396.215"/><text x="972.5" y="376.783" fill="#204E74" font-family="sans-serif" font-size="13" lengthAdjust="spacingAndGlyphs" textLength="35">invite</text><text x="972.5" y="392.094" fill="#204E74" font-family="sans-serif" font-size="13" font-style="italic" lengthAdjust="spacingAndGlyphs" textLength="44">SIP call</text><polygon fill="#204E74" points="669.5 406.836 659.5 410.836 669.5 414.836 665.5 410.836" style="stroke:#204e74;stroke-width:1"/><line style="stroke:#204e74;stroke-width:1;stroke-dasharray:2,2" x1="663.5" x2="802.5" y1="410.836" y2="410.836"/><polygon fill="#204E74" points="538 420.836 528 424.836 538 428.836 534 424.836" style="stroke:#204e74;stroke-width:1"/><line style="stroke:#204e74;stroke-width:1;stroke-dasharray:2,2" x1="532" x2="657.5" y1="424.836" y2="424.836"/><polygon fill="#204E74" points="393.5 434.836 383.5 438.836 393.5 442.836 389.5 438.836" style="stroke:#204e74;stroke-width:1"/><line style="stroke:#204e74;stroke-width:1;stroke-dasharray:2,2" x1="387.5" x2="526" y1="438.836" y2="438.836"/><polygon fill="#204E74" points="197.5 448.836 187.5 452.836 197.5 456.836 193.5 452.836" style="stroke:#204e74;stroke-width:1"/><line style="stroke:#204e74;stroke-width:1;stroke-dasharray:2,2" x1="191.5" x2="381.5" y1="452.836" y2="452.836"/><polygon fill="#204E74" points="37.5 462.836 27.5 466.836 37.5 470.836 33.5 466.836" style="stroke:#204e74;stroke-width:1"/><line style="stroke:#204e74;stroke-width:1;stroke-dasharray:2,2" x1="31.5" x2="185.5" y1="466.836" y2="466.836"/></g></svg>